<svg width="80" height="54" viewBox="0 0 80 54" fill="none" xmlns="http://www.w3.org/2000/svg">
<path d="M70.2282 0H9.77183C4.38388 0 0 4.35879 0 9.7159V44.2841C0 49.6412 4.38388 54 9.77183 54H70.2282C75.6161 54 80 49.6412 80 44.2841V9.71696C80.0011 4.35879 75.6172 0 70.2282 0ZM65.4533 6.33853L40 22.6433L14.5467 6.33853H65.4533ZM70.2282 47.6625H9.77183C7.89864 47.6625 6.37501 46.1466 6.37501 44.2852V9.89655L38.0333 30.1376C38.0758 30.164 38.1215 30.1819 38.1651 30.2062C38.2107 30.2316 38.2575 30.2559 38.3042 30.2791C38.5497 30.4048 38.8026 30.5063 39.0607 30.5728C39.0873 30.5802 39.1139 30.5834 39.1404 30.5897C39.4241 30.6563 39.711 30.6975 39.9979 30.6975H40C40.0021 30.6975 40.0043 30.6975 40.0043 30.6975C40.2911 30.6975 40.578 30.6573 40.8617 30.5897C40.8883 30.5834 40.9148 30.5802 40.9414 30.5728C41.1996 30.5063 41.4514 30.4048 41.6979 30.2791C41.7446 30.2559 41.7914 30.2316 41.8371 30.2062C41.8806 30.1819 41.9263 30.164 41.9688 30.1376L73.6271 9.89655V44.2841C73.6261 46.1466 72.1014 47.6625 70.2282 47.6625Z" fill="#2C66C2"/>
</svg>
